<svg width="101" height="32" viewBox="0 0 101 32" fill="none" xmlns="http://www.w3.org/2000/svg">
<path d="M70.8789 13.6135C70.8789 12.5805 71.9923 12.0534 73.0063 12.0534C73.722 12.0534 74.398 12.2853 74.7758 12.707C75.7102 12.1378 76.8435 11.9691 77.8177 11.9691C80.8397 11.9691 83.6033 13.5924 83.6033 17.4504C83.6033 21.3084 81.2175 22.9317 77.6189 22.9317C76.9031 22.9317 75.9886 22.8052 75.1137 22.4046V27.1691H70.8789V13.6135ZM75.1137 20.5494C75.3126 20.8024 76.0482 21.2451 76.9031 21.2451C78.3744 21.2451 79.3685 20.191 79.3685 17.598C79.3685 14.8362 78.3346 13.6557 76.8634 13.6557C76.0084 13.6557 75.233 14.1195 75.1137 14.2881V20.5494Z" fill="#6DBE45"/>
<path d="M61.7332 23.1691C57.6815 23.1691 54.9734 20.9291 54.9734 17.5907C54.9734 14.2307 57.6815 11.9691 61.7332 11.9691C65.785 11.9691 68.4931 14.2307 68.4931 17.5907C68.4931 20.9291 65.785 23.1691 61.7332 23.1691ZM59.3559 17.6122C59.3559 19.5937 59.9968 21.4676 61.7332 21.4676C63.4697 21.4676 64.1105 19.5937 64.1105 17.6122C64.1105 15.6307 63.4697 13.6707 61.7332 13.6707C59.9968 13.6707 59.3559 15.6307 59.3559 17.6122Z" fill="#6DBE45"/>
<path d="M47.4183 23.1691C43.3665 23.1691 40.6584 20.9291 40.6584 17.5907C40.6584 14.2307 43.3665 11.9691 47.4183 11.9691C51.4701 11.9691 54.1781 14.2307 54.1781 17.5907C54.1781 20.9291 51.4701 23.1691 47.4183 23.1691ZM45.041 17.6122C45.041 19.5937 45.6818 21.4676 47.4183 21.4676C49.1548 21.4676 49.7956 19.5937 49.7956 17.6122C49.7956 15.6307 49.1548 13.6707 47.4183 13.6707C45.6818 13.6707 45.041 15.6307 45.041 17.6122Z" fill="#6DBE45"/>
<path d="M39.0679 23.1691C35.0667 23.1691 33.501 23.1059 33.501 19.8849V7.92697C33.501 6.89539 34.5834 6.36908 35.5692 6.36908C36.6517 6.36908 37.6182 6.91645 37.6182 7.92697V20.4954C37.6182 21.527 37.6955 21.6322 39.0679 21.6322V23.1691Z" fill="#6DBE45"/>
<path d="M17.5955 23.1691V6.36908H25.9512C29.8109 6.36908 31.9104 8.08555 31.9104 11.3898C31.9104 14.7584 29.8109 16.3246 26.1632 16.3246H22.1126V23.1691H17.5955ZM22.1126 14.6082H24.4242C26.3965 14.6082 27.3933 13.4925 27.3933 11.2825C27.3933 9.09398 26.3965 7.871 24.8484 7.871H22.1126V14.6082Z" fill="#6DBE45"/>
</svg>
