<svg width="102" height="32" viewBox="0 0 102 32" fill="none" xmlns="http://www.w3.org/2000/svg">
<path d="M91.0574 15.2039L91.6319 12.6283L94.047 12.839L91.5381 21.6663L88.8884 21.4556L89.8967 18.7044L87.6926 12.9444L90.2484 12.6283L91.0339 15.2039H91.0574Z" fill="#6DBE45"/>
<path d="M87.1408 19.4302L84.8429 19.5824V18.9151H84.8194C84.6318 19.1649 84.3739 19.3483 84.0456 19.4654C83.7252 19.5746 83.4008 19.6293 83.0725 19.6293C82.6739 19.6293 82.287 19.5512 81.9118 19.3951C81.5445 19.2312 81.2162 19.001 80.927 18.7044C80.6378 18.4 80.4072 18.0293 80.2353 17.5922C80.0633 17.1551 79.9774 16.6595 79.9774 16.1054C79.9774 15.6058 80.0477 15.1376 80.1884 14.7005C80.3369 14.2556 80.5479 13.8693 80.8215 13.5415C81.0951 13.2058 81.4312 12.9444 81.8298 12.7571C82.2362 12.5619 82.6974 12.4644 83.2132 12.4644C83.4711 12.4644 83.7213 12.4995 83.9636 12.5698C84.2059 12.6322 84.4169 12.7415 84.5967 12.8976L84.4912 10.1112L87.1877 9.90048L87.1408 19.4302ZM83.8932 17.1122C84.0652 17.0498 84.2098 16.9678 84.327 16.8663C84.4443 16.7571 84.5341 16.64 84.5967 16.5151C84.667 16.3824 84.7061 16.2458 84.7139 16.1054C84.7217 15.9649 84.7022 15.8283 84.6553 15.6956C84.6084 15.5707 84.5341 15.4576 84.4325 15.3561C84.3387 15.2546 84.2254 15.1766 84.0925 15.1219C83.9597 15.0595 83.8111 15.0244 83.647 15.0166C83.4907 15.0088 83.3266 15.0361 83.1546 15.0985C82.9748 15.161 82.8263 15.2468 82.7091 15.3561C82.5918 15.4654 82.498 15.5863 82.4277 15.719C82.3652 15.8439 82.33 15.9805 82.3222 16.1288C82.3144 16.2693 82.3339 16.4019 82.3808 16.5268C82.4277 16.6595 82.498 16.7766 82.5918 16.878C82.6934 16.9717 82.8107 17.0498 82.9436 17.1122C83.0764 17.1668 83.221 17.198 83.3774 17.2058C83.5415 17.2058 83.7134 17.1746 83.8932 17.1122Z" fill="#6DBE45"/>
<path d="M79.3553 19.4302L77.0573 19.5824V18.9151H77.0339C76.8463 19.1649 76.5884 19.3483 76.2601 19.4654C75.9396 19.5746 75.6153 19.6293 75.287 19.6293C74.8884 19.6293 74.5015 19.5512 74.1263 19.3951C73.7589 19.2312 73.4307 19.001 73.1415 18.7044C72.8523 18.4 72.6217 18.0293 72.4497 17.5922C72.2778 17.1551 72.1918 16.6595 72.1918 16.1054C72.1918 15.6058 72.2622 15.1376 72.4028 14.7005C72.5513 14.2556 72.7624 13.8693 73.0359 13.5415C73.3095 13.2058 73.6456 12.9444 74.0442 12.7571C74.4507 12.5619 74.9118 12.4644 75.4277 12.4644C75.6856 12.4644 75.9357 12.4995 76.178 12.5698C76.4203 12.6322 76.6313 12.7415 76.8111 12.8976L76.7056 10.1112L79.4021 9.90048L79.3553 19.4302ZM76.1077 17.1122C76.2796 17.0498 76.4242 16.9678 76.5415 16.8663C76.6587 16.7571 76.7486 16.64 76.8111 16.5151C76.8815 16.3824 76.9205 16.2458 76.9284 16.1054C76.9362 15.9649 76.9166 15.8283 76.8697 15.6956C76.8228 15.5707 76.7486 15.4576 76.647 15.3561C76.5532 15.2546 76.4398 15.1766 76.307 15.1219C76.1741 15.0595 76.0256 15.0244 75.8615 15.0166C75.7051 15.0088 75.541 15.0361 75.369 15.0985C75.1893 15.161 75.0408 15.2468 74.9235 15.3561C74.8063 15.4654 74.7125 15.5863 74.6421 15.719C74.5796 15.8439 74.5444 15.9805 74.5366 16.1288C74.5288 16.2693 74.5484 16.4019 74.5953 16.5268C74.6422 16.6595 74.7125 16.7766 74.8063 16.878C74.9079 16.9717 75.0251 17.0498 75.158 17.1122C75.2909 17.1668 75.4355 17.198 75.5918 17.2058C75.7559 17.2058 75.9279 17.1746 76.1077 17.1122Z" fill="#6DBE45"/>
<path d="M69.6146 18.482H69.5912C69.4348 18.9112 69.1886 19.2156 68.8525 19.3951C68.5243 19.5746 68.1374 19.6644 67.6918 19.6644C67.1056 19.6644 66.6289 19.4927 66.2615 19.1493C65.902 18.798 65.7222 18.2907 65.7222 17.6273V12.7102L68.3367 12.4995L68.2663 16.8312C68.2585 17.0185 68.2976 17.1551 68.3836 17.241C68.4774 17.319 68.618 17.358 68.8056 17.358C68.962 17.358 69.087 17.319 69.1808 17.241C69.2824 17.1629 69.3293 17.0302 69.3215 16.8429L69.2512 12.7102L71.9477 12.4995L71.7718 19.4654L69.6146 19.559V18.482Z" fill="#6DBE45"/>
<path d="M62.4318 12.4059C62.9008 12.4059 63.3307 12.5073 63.7215 12.7102C64.1123 12.9132 64.4523 13.1824 64.7415 13.518C65.0307 13.8459 65.2534 14.2205 65.4098 14.6419C65.5739 15.0634 65.656 15.4927 65.656 15.9298C65.656 16.5151 65.5544 17.0341 65.3511 17.4868C65.1557 17.9395 64.8939 18.3219 64.5656 18.6341C64.2374 18.9385 63.8544 19.1727 63.4167 19.3366C62.9868 19.4927 62.5374 19.5707 62.0684 19.5707C61.7089 19.5707 61.3689 19.5083 61.0484 19.3834C60.7357 19.2585 60.4426 19.1259 60.1691 18.9854V19.4888H58.3167L58.2463 10.0527L60.9546 9.84195L60.8491 12.8859C61.0914 12.7532 61.3259 12.64 61.5525 12.5463C61.7792 12.4527 62.0723 12.4059 62.4318 12.4059ZM62.2208 17.1239C62.4084 17.0693 62.5686 16.9951 62.7015 16.9015C62.8344 16.8 62.9399 16.6868 63.018 16.562C63.104 16.4371 63.1587 16.3044 63.1822 16.1639C63.2056 16.0234 63.1978 15.8829 63.1587 15.7424C63.1197 15.6019 63.0532 15.481 62.9594 15.3795C62.8656 15.2702 62.7484 15.1844 62.6077 15.1219C62.4748 15.0517 62.3224 15.0127 62.1505 15.0049C61.9863 14.9893 61.8105 15.0088 61.6229 15.0634C61.4353 15.118 61.2711 15.1961 61.1305 15.2976C60.9976 15.399 60.8882 15.5122 60.8022 15.6371C60.724 15.7619 60.6732 15.8946 60.6498 16.0351C60.6263 16.1756 60.6341 16.3161 60.6732 16.4566C60.7123 16.5971 60.7787 16.7219 60.8725 16.8312C60.9663 16.9327 61.0797 17.0146 61.2125 17.0771C61.3532 17.1395 61.5095 17.1785 61.6815 17.1941C61.8534 17.2019 62.0332 17.1785 62.2208 17.1239Z" fill="#6DBE45"/>
<path d="M48.5434 19.3249C48.817 19.4185 49.0905 19.4966 49.3641 19.559C49.6455 19.6215 49.9347 19.6527 50.2317 19.6527C50.3567 19.6527 50.4818 19.6449 50.6068 19.6293C50.7319 19.6137 50.8452 19.5785 50.9468 19.5239C51.0485 19.4771 51.1305 19.4107 51.1931 19.3249C51.2556 19.2312 51.2868 19.1102 51.2868 18.962C51.2868 18.8137 51.2478 18.6927 51.1696 18.599C51.0993 18.4976 50.9976 18.4195 50.8648 18.3649C50.7397 18.3024 50.5951 18.2634 50.431 18.2478C50.2668 18.2244 50.0988 18.2127 49.9268 18.2127C49.7236 18.2127 49.5165 18.2439 49.3055 18.3063C49.0944 18.361 48.899 18.4351 48.7193 18.5288L48.942 17.8263C48.4262 17.5766 48.0236 17.2371 47.7344 16.8078C47.4531 16.3707 47.3124 15.8439 47.3124 15.2273C47.3124 14.9073 47.371 14.5795 47.4882 14.2439C47.6133 13.9005 47.8048 13.5883 48.0627 13.3073C48.3206 13.0263 48.6489 12.7961 49.0475 12.6166C49.4462 12.4371 49.9229 12.3473 50.4779 12.3473C50.7593 12.3473 51.0055 12.3668 51.2165 12.4059C51.4275 12.4449 51.6268 12.4956 51.8144 12.558L52.0137 11.3288L53.8896 12.1366L53.2799 13.3307C53.5301 13.5727 53.7176 13.8537 53.8427 14.1737C53.9756 14.4859 54.042 14.8215 54.042 15.1805C54.042 15.6722 53.9404 16.0937 53.7372 16.4449C53.5418 16.7883 53.2487 17.0888 52.8579 17.3463C53.6239 17.7756 54.0068 18.4234 54.0068 19.2898C54.0068 19.7034 53.917 20.0702 53.7372 20.3902C53.5574 20.7181 53.2995 20.9912 52.9634 21.2098C52.6351 21.4283 52.2365 21.5922 51.7675 21.7015C51.3064 21.8185 50.7905 21.8771 50.2199 21.8771C49.5321 21.8771 48.9616 21.8185 48.5082 21.7015C48.0549 21.5844 47.6875 21.479 47.4062 21.3854L48.5434 19.3249ZM50.8062 16.0351C51.0719 15.9805 51.2712 15.8712 51.4041 15.7073C51.537 15.5434 51.5839 15.36 51.5448 15.1571C51.4979 14.9541 51.3767 14.8059 51.1813 14.7122C50.9937 14.6185 50.771 14.599 50.5131 14.6537C50.2473 14.7161 50.048 14.8293 49.9151 14.9932C49.7822 15.1571 49.7353 15.3366 49.7744 15.5317C49.8135 15.7346 49.9268 15.8868 50.1144 15.9883C50.3098 16.082 50.5404 16.0976 50.8062 16.0351Z" fill="#6DBE45"/>
<path d="M43.2579 13.4946H43.3048C43.5628 13.1434 43.8246 12.9054 44.0903 12.7805C44.3639 12.6556 44.6609 12.5932 44.9814 12.5932C45.3097 12.5932 45.5988 12.6517 45.849 12.7688C46.0991 12.8859 46.3101 13.0498 46.4821 13.2605C46.654 13.4712 46.783 13.7171 46.869 13.998C46.9628 14.279 47.0097 14.5834 47.0097 14.9112V19.442L44.4772 19.6527L44.5124 15.3912C44.5202 15.2507 44.4655 15.1337 44.3483 15.04C44.2388 14.9463 44.106 14.8995 43.9497 14.8995C43.8011 14.8995 43.6644 14.9463 43.5393 15.04C43.4221 15.1259 43.3634 15.2468 43.3634 15.4029L43.4103 19.6293L40.9131 19.4537L40.8193 12.7922L43.2579 12.5932V13.4946Z" fill="#6DBE45"/>
<path d="M37.3878 12.8741L40.0023 12.6634L39.8733 19.4185L37.3878 19.6293V12.8741ZM37.3761 9.91219L40.0609 9.79512L39.9202 11.8556L37.3643 12.0429L37.3761 9.91219Z" fill="#6DBE45"/>
<path d="M31.106 19.3249C31.3796 19.4185 31.6532 19.4966 31.9267 19.559C32.2081 19.6215 32.4973 19.6527 32.7943 19.6527C32.9194 19.6527 33.0444 19.6449 33.1695 19.6293C33.2945 19.6137 33.4079 19.5785 33.5095 19.5239C33.6111 19.4771 33.6932 19.4107 33.7557 19.3249C33.8182 19.2312 33.8495 19.1102 33.8495 18.962C33.8495 18.8137 33.8104 18.6927 33.7322 18.599C33.6619 18.4976 33.5603 18.4195 33.4274 18.3649C33.3024 18.3024 33.1578 18.2634 32.9936 18.2478C32.8295 18.2244 32.6614 18.2127 32.4895 18.2127C32.2863 18.2127 32.0791 18.2439 31.8681 18.3063C31.6571 18.361 31.4617 18.4351 31.2819 18.5288L31.5047 17.8263C30.9888 17.5766 30.5863 17.2371 30.2971 16.8078C30.0157 16.3707 29.875 15.8439 29.875 15.2273C29.875 14.9073 29.9336 14.5795 30.0509 14.2439C30.1759 13.9005 30.3674 13.5883 30.6253 13.3073C30.8833 13.0263 31.2116 12.7961 31.6102 12.6166C32.0088 12.4371 32.4856 12.3473 33.0405 12.3473C33.3219 12.3473 33.5681 12.3668 33.7791 12.4059C33.9902 12.4449 34.1895 12.4956 34.3771 12.558L34.5764 11.3288L36.4522 12.1366L35.8426 13.3307C36.0927 13.5727 36.2803 13.8537 36.4053 14.1737C36.5382 14.4859 36.6047 14.8215 36.6047 15.1805C36.6047 15.6722 36.503 16.0937 36.2998 16.4449C36.1044 16.7883 35.8113 17.0888 35.4205 17.3463C36.1865 17.7756 36.5695 18.4234 36.5695 19.2898C36.5695 19.7034 36.4796 20.0702 36.2998 20.3902C36.1201 20.7181 35.8621 20.9912 35.526 21.2098C35.1978 21.4283 34.7991 21.5922 34.3302 21.7015C33.869 21.8185 33.3532 21.8771 32.7826 21.8771C32.0948 21.8771 31.5242 21.8185 31.0709 21.7015C30.6175 21.5844 30.2502 21.479 29.9688 21.3854L31.106 19.3249ZM33.3688 16.0351C33.6345 15.9805 33.8338 15.8712 33.9667 15.7073C34.0996 15.5434 34.1465 15.36 34.1074 15.1571C34.0605 14.9541 33.9394 14.8059 33.744 14.7122C33.5564 14.6185 33.3336 14.599 33.0757 14.6537C32.8099 14.7161 32.6106 14.8293 32.4778 14.9932C32.3449 15.1571 32.298 15.3366 32.3371 15.5317C32.3761 15.7346 32.4895 15.8868 32.6771 15.9883C32.8725 16.082 33.103 16.0976 33.3688 16.0351Z" fill="#6DBE45"/>
<path d="M24.1677 19.3249C24.4413 19.4185 24.7149 19.4966 24.9884 19.559C25.2698 19.6215 25.559 19.6527 25.856 19.6527C25.9811 19.6527 26.1061 19.6449 26.2312 19.6293C26.3562 19.6137 26.4696 19.5785 26.5712 19.5239C26.6728 19.4771 26.7549 19.4107 26.8174 19.3249C26.8799 19.2312 26.9112 19.1102 26.9112 18.962C26.9112 18.8137 26.8721 18.6927 26.7939 18.599C26.7236 18.4976 26.622 18.4195 26.4891 18.3649C26.364 18.3024 26.2194 18.2634 26.0553 18.2478C25.8912 18.2244 25.7231 18.2127 25.5512 18.2127C25.348 18.2127 25.1408 18.2439 24.9298 18.3063C24.7188 18.361 24.5234 18.4351 24.3436 18.5288L24.5663 17.8263C24.0505 17.5766 23.648 17.2371 23.3588 16.8078C23.0774 16.3707 22.9367 15.8439 22.9367 15.2273C22.9367 14.9073 22.9953 14.5795 23.1126 14.2439C23.2376 13.9005 23.4291 13.5883 23.687 13.3073C23.945 13.0263 24.2732 12.7961 24.6719 12.6166C25.0705 12.4371 25.5473 12.3473 26.1022 12.3473C26.3836 12.3473 26.6298 12.3668 26.8408 12.4059C27.0519 12.4449 27.2512 12.4956 27.4388 12.558L27.6381 11.3288L29.5139 12.1366L28.9043 13.3307C29.1544 13.5727 29.342 13.8537 29.467 14.1737C29.5999 14.4859 29.6663 14.8215 29.6663 15.1805C29.6663 15.6722 29.5647 16.0937 29.3615 16.4449C29.1661 16.7883 28.873 17.0888 28.4822 17.3463C29.2482 17.7756 29.6312 18.4234 29.6312 19.2898C29.6312 19.7034 29.5413 20.0702 29.3615 20.3902C29.1817 20.7181 28.9238 20.9912 28.5877 21.2098C28.2595 21.4283 27.8608 21.5922 27.3919 21.7015C26.9307 21.8185 26.4149 21.8771 25.8443 21.8771C25.1565 21.8771 24.5859 21.8185 24.1326 21.7015C23.6792 21.5844 23.3119 21.479 23.0305 21.3854L24.1677 19.3249ZM26.4305 16.0351C26.6962 15.9805 26.8955 15.8712 27.0284 15.7073C27.1613 15.5434 27.2082 15.36 27.1691 15.1571C27.1222 14.9541 27.0011 14.8059 26.8057 14.7122C26.6181 14.6185 26.3953 14.599 26.1374 14.6537C25.8716 14.7161 25.6723 14.8293 25.5394 14.9932C25.4066 15.1571 25.3597 15.3366 25.3988 15.5317C25.4378 15.7346 25.5512 15.8868 25.7388 15.9883C25.9342 16.082 26.1647 16.0976 26.4305 16.0351Z" fill="#6DBE45"/>
<path d="M23.1104 15.4849C23.1885 16.0234 23.1612 16.5268 23.0283 16.9951C22.9032 17.4556 22.6961 17.8654 22.4069 18.2244C22.1255 18.5756 21.7699 18.8683 21.34 19.1024C20.9179 19.3288 20.4451 19.4771 19.9214 19.5473C19.3977 19.6176 18.8975 19.6019 18.4207 19.5005C17.9439 19.399 17.5179 19.2195 17.1428 18.9619C16.7676 18.6966 16.455 18.361 16.2048 17.9551C15.9547 17.5415 15.7945 17.0654 15.7241 16.5268C15.646 15.9883 15.6733 15.4888 15.8062 15.0283C15.9313 14.56 16.1345 14.1463 16.4159 13.7873C16.7051 13.4283 17.0607 13.1356 17.4828 12.9093C17.9127 12.6751 18.3894 12.5229 18.9131 12.4527C19.4368 12.3824 19.9331 12.398 20.4021 12.4995C20.8789 12.601 21.3048 12.7844 21.68 13.0498C22.0552 13.3073 22.3678 13.6429 22.6179 14.0566C22.8681 14.4702 23.0322 14.9463 23.1104 15.4849ZM18.1862 16.48C18.3191 16.7844 18.5301 16.9834 18.8193 17.0771C19.1085 17.1707 19.4368 17.1395 19.8041 16.9834C20.1637 16.8273 20.4099 16.6166 20.5428 16.3512C20.6835 16.078 20.6913 15.7893 20.5662 15.4849C20.4333 15.1883 20.2223 14.9932 19.9331 14.8995C19.6439 14.798 19.3196 14.8254 18.96 14.9815C18.5927 15.1376 18.3386 15.3522 18.1979 15.6254C18.0651 15.8985 18.0612 16.1834 18.1862 16.48Z" fill="#6DBE45"/>
<path d="M12.7131 10.2049L15.3627 9.99414L15.2572 19.4185L12.7951 19.6293L12.7131 10.2049Z" fill="#6DBE45"/>
<path d="M8.37494 14.7824H7.56597L7.94114 12.7688H8.37494C8.37494 12.3473 8.42965 11.9649 8.53907 11.6215C8.6485 11.278 8.81264 10.9893 9.03149 10.7551C9.25816 10.5132 9.54344 10.3258 9.88735 10.1932C10.2313 10.0605 10.6416 9.99414 11.1184 9.99414C11.2513 9.99414 11.3685 10.0058 11.4701 10.0293C11.5795 10.0449 11.6929 10.0605 11.8101 10.0761L12.1149 12.0195H11.7163C11.4584 12.0195 11.2591 12.0858 11.1184 12.2185C10.9855 12.3512 10.9191 12.5346 10.9191 12.7688H11.9274V14.7824H10.9191L10.9894 19.4185L8.36321 19.6293L8.37494 14.7824Z" fill="#6DBE45"/>
</svg>
