<svg width="102" height="32" viewBox="0 0 102 32" fill="none" xmlns="http://www.w3.org/2000/svg">
<path d="M91.2874 15.4811L91.844 12.9857L94.1839 13.1898L91.7531 21.7422L89.186 21.538L90.1628 18.8725L88.0273 13.2919L90.5036 12.9857L91.2646 15.4811H91.2874Z" fill="#6DBE45"/>
<path d="M87.4928 19.5757L85.2665 19.7232V19.0767H85.2437C85.062 19.3186 84.8121 19.4963 84.494 19.6098C84.1836 19.7156 83.8693 19.7686 83.5513 19.7686C83.1651 19.7686 82.7902 19.6929 82.4267 19.5417C82.0708 19.3829 81.7528 19.1598 81.4726 18.8725C81.1924 18.5776 80.969 18.2184 80.8024 17.7949C80.6358 17.3715 80.5525 16.8913 80.5525 16.3544C80.5525 15.8705 80.6206 15.4168 80.7569 14.9933C80.9008 14.5623 81.1053 14.188 81.3703 13.8704C81.6354 13.5452 81.961 13.2919 82.3472 13.1104C82.741 12.9214 83.1878 12.8268 83.6876 12.8268C83.9375 12.8268 84.1798 12.8609 84.4145 12.9289C84.6493 12.9894 84.8538 13.0953 85.0279 13.2465L84.9257 10.547L87.5383 10.3428L87.4928 19.5757ZM84.3464 17.3299C84.513 17.2694 84.6531 17.19 84.7667 17.0917C84.8803 16.9858 84.9673 16.8724 85.0279 16.7514C85.0961 16.6229 85.1339 16.4905 85.1415 16.3544C85.1491 16.2183 85.1301 16.086 85.0847 15.9574C85.0393 15.8364 84.9673 15.7268 84.8689 15.6285C84.778 15.5302 84.6682 15.4546 84.5395 15.4016C84.4108 15.3411 84.2669 15.3071 84.1078 15.2996C83.9564 15.292 83.7974 15.3185 83.6308 15.379C83.4566 15.4394 83.3127 15.5226 83.1991 15.6285C83.0855 15.7344 82.9947 15.8516 82.9265 15.9801C82.8659 16.1011 82.8319 16.2334 82.8243 16.3771C82.8167 16.5132 82.8356 16.6418 82.8811 16.7628C82.9265 16.8913 82.9947 17.0047 83.0855 17.103C83.184 17.1938 83.2976 17.2694 83.4263 17.3299C83.555 17.3828 83.6951 17.4131 83.8466 17.4206C84.0056 17.4206 84.1722 17.3904 84.3464 17.3299Z" fill="#6DBE45"/>
<path d="M79.9496 19.5757L77.7233 19.7232V19.0767H77.7006C77.5188 19.3186 77.2689 19.4963 76.9509 19.6098C76.6404 19.7156 76.3261 19.7686 76.0081 19.7686C75.6219 19.7686 75.247 19.6929 74.8835 19.5417C74.5276 19.3829 74.2096 19.1598 73.9294 18.8725C73.6492 18.5776 73.4258 18.2184 73.2592 17.7949C73.0926 17.3715 73.0093 16.8913 73.0093 16.3544C73.0093 15.8705 73.0775 15.4168 73.2138 14.9933C73.3576 14.5623 73.5621 14.188 73.8272 13.8704C74.0922 13.5452 74.4178 13.2919 74.804 13.1104C75.1978 12.9214 75.6446 12.8268 76.1444 12.8268C76.3943 12.8268 76.6366 12.8609 76.8714 12.9289C77.1061 12.9894 77.3106 13.0953 77.4847 13.2465L77.3825 10.547L79.9951 10.3428L79.9496 19.5757ZM76.8032 17.3299C76.9698 17.2694 77.1099 17.19 77.2235 17.0917C77.3371 16.9858 77.4242 16.8724 77.4847 16.7514C77.5529 16.6229 77.5908 16.4905 77.5983 16.3544C77.6059 16.2183 77.587 16.086 77.5415 15.9574C77.4961 15.8364 77.4242 15.7268 77.3257 15.6285C77.2348 15.5302 77.125 15.4546 76.9963 15.4016C76.8676 15.3411 76.7237 15.3071 76.5647 15.2996C76.4132 15.292 76.2542 15.3185 76.0876 15.379C75.9134 15.4394 75.7695 15.5226 75.6559 15.6285C75.5424 15.7344 75.4515 15.8516 75.3833 15.9801C75.3227 16.1011 75.2887 16.2334 75.2811 16.3771C75.2735 16.5132 75.2925 16.6418 75.3379 16.7628C75.3833 16.8913 75.4515 17.0047 75.5424 17.103C75.6408 17.1938 75.7544 17.2694 75.8831 17.3299C76.0119 17.3828 76.152 17.4131 76.3034 17.4206C76.4624 17.4206 76.629 17.3904 76.8032 17.3299Z" fill="#6DBE45"/>
<path d="M70.5124 18.657H70.4897C70.3382 19.0729 70.0997 19.3678 69.7741 19.5417C69.456 19.7157 69.0812 19.8026 68.6495 19.8026C68.0816 19.8026 67.6197 19.6363 67.2637 19.3035C66.9154 18.9633 66.7412 18.4717 66.7412 17.829V13.0651L69.2743 12.8609L69.2061 17.0577C69.1985 17.2392 69.2364 17.3715 69.3197 17.4547C69.4106 17.5303 69.5469 17.5681 69.7286 17.5681C69.8801 17.5681 70.0012 17.5303 70.0921 17.4547C70.1906 17.3791 70.236 17.2505 70.2284 17.069L70.1603 13.0651L72.7728 12.8609L72.6024 19.6098L70.5124 19.7005V18.657Z" fill="#6DBE45"/>
<path d="M63.5533 12.7701C64.0077 12.7701 64.4242 12.8684 64.8028 13.065C65.1815 13.2616 65.5109 13.5225 65.7911 13.8477C66.0713 14.1653 66.2871 14.5282 66.4385 14.9366C66.5976 15.3449 66.6771 15.7608 66.6771 16.1843C66.6771 16.7514 66.5786 17.2543 66.3817 17.6929C66.1924 18.1314 65.9387 18.502 65.6207 18.8044C65.3026 19.0993 64.9316 19.3262 64.5075 19.485C64.091 19.6362 63.6556 19.7118 63.2012 19.7118C62.8529 19.7118 62.5235 19.6514 62.213 19.5304C61.9101 19.4094 61.6261 19.2808 61.3611 19.1447V19.6324H59.5664L59.4982 10.4903L62.1221 10.2861L62.0199 13.2352C62.2546 13.1066 62.4818 12.997 62.7014 12.9062C62.921 12.8155 63.205 12.7701 63.5533 12.7701ZM63.3489 17.3412C63.5306 17.2883 63.6859 17.2165 63.8146 17.1257C63.9433 17.0274 64.0456 16.9178 64.1213 16.7968C64.2046 16.6758 64.2576 16.5472 64.2803 16.4111C64.303 16.275 64.2955 16.1389 64.2576 16.0028C64.2197 15.8667 64.1554 15.7495 64.0645 15.6512C63.9736 15.5453 63.86 15.4621 63.7237 15.4016C63.595 15.3336 63.4473 15.2958 63.2807 15.2882C63.1217 15.2731 62.9513 15.292 62.7696 15.3449C62.5878 15.3979 62.4288 15.4735 62.2925 15.5718C62.1638 15.6701 62.0578 15.7797 61.9745 15.9007C61.8987 16.0217 61.8495 16.1502 61.8268 16.2864C61.8041 16.4225 61.8116 16.5586 61.8495 16.6947C61.8874 16.8308 61.9517 16.9518 62.0426 17.0577C62.1335 17.156 62.2433 17.2354 62.372 17.2959C62.5083 17.3564 62.6598 17.3942 62.8264 17.4093C62.993 17.4168 63.1671 17.3942 63.3489 17.3412Z" fill="#6DBE45"/>
<path d="M50.0975 19.4737C50.3626 19.5644 50.6276 19.64 50.8927 19.7005C51.1653 19.761 51.4455 19.7913 51.7332 19.7913C51.8544 19.7913 51.9756 19.7837 52.0967 19.7686C52.2179 19.7535 52.3277 19.7194 52.4261 19.6665C52.5246 19.6211 52.6041 19.5568 52.6647 19.4737C52.7252 19.3829 52.7555 19.2657 52.7555 19.122C52.7555 18.9784 52.7177 18.8612 52.6419 18.7704C52.5738 18.6721 52.4753 18.5965 52.3466 18.5436C52.2255 18.4831 52.0854 18.4453 51.9263 18.4301C51.7673 18.4075 51.6045 18.3961 51.4379 18.3961C51.241 18.3961 51.0403 18.4264 50.8359 18.4869C50.6314 18.5398 50.4421 18.6116 50.2679 18.7024L50.4837 18.0218C49.9839 17.7798 49.594 17.4509 49.3138 17.035C49.0412 16.6115 48.9048 16.1011 48.9048 15.5037C48.9048 15.1937 48.9616 14.8761 49.0752 14.5509C49.1964 14.2182 49.3819 13.9158 49.6318 13.6435C49.8817 13.3713 50.1998 13.1482 50.586 12.9743C50.9722 12.8004 51.4341 12.7134 51.9718 12.7134C52.2444 12.7134 52.4829 12.7323 52.6874 12.7701C52.8918 12.808 53.0849 12.8571 53.2667 12.9176L53.4598 11.7266L55.2772 12.5093L54.6866 13.6662C54.9289 13.9006 55.1106 14.1729 55.2318 14.4829C55.3605 14.7854 55.4249 15.1105 55.4249 15.4584C55.4249 15.9348 55.3264 16.3431 55.1296 16.6834C54.9402 17.0161 54.6563 17.3072 54.2776 17.5568C55.0198 17.9727 55.3908 18.6003 55.3908 19.4396C55.3908 19.8404 55.3037 20.1958 55.1296 20.5058C54.9554 20.8234 54.7055 21.0881 54.3799 21.2998C54.0618 21.5116 53.6756 21.6704 53.2213 21.7762C52.7745 21.8897 52.2747 21.9464 51.7219 21.9464C51.0555 21.9464 50.5027 21.8897 50.0635 21.7762C49.6242 21.6628 49.2683 21.5607 48.9957 21.47L50.0975 19.4737ZM52.2898 16.2864C52.5473 16.2334 52.7404 16.1276 52.8691 15.9688C52.9979 15.81 53.0433 15.6323 53.0054 15.4357C52.96 15.2391 52.8426 15.0954 52.6533 15.0047C52.4716 14.9139 52.2557 14.895 52.0058 14.9479C51.7484 15.0084 51.5553 15.1181 51.4265 15.2769C51.2978 15.4357 51.2524 15.6096 51.2902 15.7986C51.3281 15.9952 51.4379 16.1427 51.6196 16.241C51.809 16.3317 52.0323 16.3469 52.2898 16.2864Z" fill="#6DBE45"/>
<path d="M44.9766 13.825H45.0221C45.272 13.4847 45.5257 13.2541 45.7831 13.1331C46.0482 13.0121 46.3359 12.9516 46.6464 12.9516C46.9645 12.9516 47.2447 13.0083 47.487 13.1218C47.7293 13.2352 47.9338 13.394 48.1004 13.5982C48.267 13.8023 48.3919 14.0405 48.4752 14.3127C48.5661 14.585 48.6115 14.8799 48.6115 15.1975V19.5871L46.158 19.7913L46.1921 15.6625C46.1996 15.5264 46.1466 15.413 46.033 15.3222C45.927 15.2315 45.7983 15.1861 45.6468 15.1861C45.5029 15.1861 45.3704 15.2315 45.2493 15.3222C45.1357 15.4054 45.0789 15.5226 45.0789 15.6739L45.1243 19.7686L42.7049 19.5984L42.614 13.1445L44.9766 12.9516V13.825Z" fill="#6DBE45"/>
<path d="M39.2893 13.2238L41.8224 13.0197L41.6974 19.5644L39.2893 19.7686V13.2238ZM39.2779 10.3541L41.8791 10.2407L41.7428 12.237L39.2666 12.4185L39.2779 10.3541Z" fill="#6DBE45"/>
<path d="M33.2033 19.4737C33.4683 19.5644 33.7333 19.64 33.9984 19.7005C34.271 19.761 34.5512 19.7913 34.8389 19.7913C34.9601 19.7913 35.0813 19.7837 35.2024 19.7686C35.3236 19.7535 35.4334 19.7194 35.5318 19.6665C35.6303 19.6211 35.7098 19.5568 35.7704 19.4737C35.831 19.3829 35.8612 19.2657 35.8612 19.122C35.8612 18.9784 35.8234 18.8612 35.7477 18.7704C35.6795 18.6721 35.5811 18.5965 35.4523 18.5436C35.3312 18.4831 35.1911 18.4453 35.032 18.4301C34.873 18.4075 34.7102 18.3961 34.5436 18.3961C34.3467 18.3961 34.146 18.4264 33.9416 18.4869C33.7371 18.5398 33.5478 18.6116 33.3736 18.7024L33.5895 18.0218C33.0897 17.7798 32.6997 17.4509 32.4195 17.035C32.1469 16.6115 32.0106 16.1011 32.0106 15.5037C32.0106 15.1937 32.0674 14.8761 32.1809 14.5509C32.3021 14.2182 32.4876 13.9158 32.7375 13.6435C32.9874 13.3713 33.3055 13.1482 33.6917 12.9743C34.0779 12.8004 34.5398 12.7134 35.0775 12.7134C35.3501 12.7134 35.5886 12.7323 35.7931 12.7701C35.9976 12.808 36.1907 12.8571 36.3724 12.9176L36.5655 11.7266L38.3829 12.5093L37.7923 13.6662C38.0346 13.9006 38.2163 14.1729 38.3375 14.4829C38.4662 14.7854 38.5306 15.1105 38.5306 15.4584C38.5306 15.9348 38.4322 16.3431 38.2353 16.6834C38.046 17.0161 37.762 17.3072 37.3834 17.5568C38.1255 17.9727 38.4965 18.6003 38.4965 19.4396C38.4965 19.8404 38.4094 20.1958 38.2353 20.5058C38.0611 20.8234 37.8112 21.0881 37.4856 21.2998C37.1675 21.5116 36.7813 21.6704 36.327 21.7762C35.8802 21.8897 35.3804 21.9464 34.8276 21.9464C34.1612 21.9464 33.6084 21.8897 33.1692 21.7762C32.73 21.6628 32.374 21.5607 32.1014 21.47L33.2033 19.4737ZM35.3955 16.2864C35.653 16.2334 35.8461 16.1276 35.9748 15.9688C36.1036 15.81 36.149 15.6323 36.1111 15.4357C36.0657 15.2391 35.9483 15.0954 35.759 15.0047C35.5773 14.9139 35.3615 14.895 35.1116 14.9479C34.8541 15.0084 34.661 15.1181 34.5323 15.2769C34.4035 15.4357 34.3581 15.6096 34.3959 15.7986C34.4338 15.9952 34.5436 16.1427 34.7254 16.241C34.9147 16.3317 35.1381 16.3469 35.3955 16.2864Z" fill="#6DBE45"/>
<path d="M26.4811 19.4737C26.7461 19.5644 27.0111 19.64 27.2762 19.7005C27.5488 19.761 27.829 19.7913 28.1167 19.7913C28.2379 19.7913 28.3591 19.7837 28.4802 19.7686C28.6014 19.7535 28.7112 19.7194 28.8096 19.6665C28.9081 19.6211 28.9876 19.5568 29.0482 19.4737C29.1088 19.3829 29.1391 19.2657 29.1391 19.122C29.1391 18.9784 29.1012 18.8612 29.0255 18.7704C28.9573 18.6721 28.8589 18.5965 28.7301 18.5436C28.609 18.4831 28.4689 18.4453 28.3098 18.4301C28.1508 18.4075 27.988 18.3961 27.8214 18.3961C27.6245 18.3961 27.4238 18.4264 27.2194 18.4869C27.0149 18.5398 26.8256 18.6116 26.6514 18.7024L26.8673 18.0218C26.3675 17.7798 25.9775 17.4509 25.6973 17.035C25.4247 16.6115 25.2884 16.1011 25.2884 15.5037C25.2884 15.1937 25.3452 14.8761 25.4587 14.5509C25.5799 14.2182 25.7654 13.9158 26.0153 13.6435C26.2652 13.3713 26.5833 13.1482 26.9695 12.9743C27.3557 12.8004 27.8176 12.7134 28.3553 12.7134C28.6279 12.7134 28.8664 12.7323 29.0709 12.7701C29.2754 12.808 29.4685 12.8571 29.6502 12.9176L29.8433 11.7266L31.6607 12.5093L31.0701 13.6662C31.3124 13.9006 31.4941 14.1729 31.6153 14.4829C31.744 14.7854 31.8084 15.1105 31.8084 15.4584C31.8084 15.9348 31.71 16.3431 31.5131 16.6834C31.3238 17.0161 31.0398 17.3072 30.6612 17.5568C31.4033 17.9727 31.7743 18.6003 31.7743 19.4396C31.7743 19.8404 31.6872 20.1958 31.5131 20.5058C31.3389 20.8234 31.089 21.0881 30.7634 21.2998C30.4453 21.5116 30.0591 21.6704 29.6048 21.7762C29.158 21.8897 28.6582 21.9464 28.1054 21.9464C27.439 21.9464 26.8862 21.8897 26.447 21.7762C26.0078 21.6628 25.6518 21.5607 25.3792 21.47L26.4811 19.4737ZM28.6733 16.2864C28.9308 16.2334 29.1239 16.1276 29.2526 15.9688C29.3814 15.81 29.4268 15.6323 29.3889 15.4357C29.3435 15.2391 29.2261 15.0954 29.0368 15.0047C28.8551 14.9139 28.6393 14.895 28.3894 14.9479C28.1319 15.0084 27.9388 15.1181 27.8101 15.2769C27.6813 15.4357 27.6359 15.6096 27.6737 15.7986C27.7116 15.9952 27.8214 16.1427 28.0032 16.241C28.1925 16.3317 28.4159 16.3469 28.6733 16.2864Z" fill="#6DBE45"/>
<path d="M25.4568 15.7533C25.5326 16.275 25.506 16.7628 25.3773 17.2165C25.2562 17.6626 25.0555 18.0596 24.7753 18.4075C24.5027 18.7477 24.1581 19.0313 23.7416 19.2582C23.3327 19.4774 22.8746 19.6211 22.3672 19.6892C21.8598 19.7572 21.3752 19.7421 20.9132 19.6438C20.4513 19.5455 20.0386 19.3716 19.6751 19.122C19.3116 18.8649 19.0087 18.5398 18.7664 18.1466C18.5241 17.7458 18.3688 17.2845 18.3007 16.7628C18.2249 16.241 18.2515 15.7571 18.3802 15.3109C18.5014 14.8572 18.6982 14.4564 18.9709 14.1086C19.251 13.7607 19.5956 13.4772 20.0045 13.2579C20.421 13.031 20.8829 12.8836 21.3903 12.8155C21.8977 12.7475 22.3785 12.7626 22.8329 12.8609C23.2948 12.9592 23.7075 13.1369 24.071 13.394C24.4345 13.6435 24.7374 13.9687 24.9798 14.3695C25.2221 14.7702 25.3811 15.2315 25.4568 15.7533ZM20.6861 16.7174C20.8148 17.0123 21.0193 17.2051 21.2994 17.2959C21.5796 17.3866 21.8977 17.3564 22.2536 17.2051C22.6019 17.0539 22.8405 16.8497 22.9692 16.5926C23.1055 16.328 23.1131 16.0482 22.9919 15.7533C22.8632 15.4659 22.6587 15.2769 22.3785 15.1861C22.0984 15.0878 21.7841 15.1143 21.4358 15.2655C21.0798 15.4168 20.8337 15.6247 20.6974 15.8894C20.5687 16.154 20.5649 16.4301 20.6861 16.7174Z" fill="#6DBE45"/>
<path d="M15.3833 10.6377L17.9504 10.4335L17.8482 19.5644L15.4628 19.7686L15.3833 10.6377Z" fill="#6DBE45"/>
<path d="M10.4457 12.8722V13.6435C10.688 13.3789 10.9379 13.1861 11.1954 13.0651C11.4604 12.9365 11.7747 12.8722 12.1382 12.8722C12.5926 12.8722 13.0053 12.9743 13.3763 13.1785C13.755 13.3751 14.073 13.636 14.3305 13.9611C14.5955 14.2863 14.8 14.6568 14.9439 15.0727C15.0877 15.4811 15.1597 15.897 15.1597 16.3204C15.1597 16.7741 15.084 17.2127 14.9325 17.6362C14.7811 18.0521 14.5652 18.4226 14.285 18.7477C14.0124 19.0729 13.683 19.3338 13.2968 19.5304C12.9106 19.727 12.4865 19.8253 12.0246 19.8253C11.7899 19.8253 11.5362 19.7913 11.2636 19.7232C10.9985 19.6552 10.76 19.519 10.5479 19.3149L10.6161 21.5721L8.21935 21.7762L8.09441 13.0764L10.4457 12.8722ZM11.9905 17.2619C12.3313 17.1031 12.5585 16.88 12.6721 16.5926C12.7932 16.3053 12.7932 16.0368 12.6721 15.7873C12.5509 15.5302 12.3427 15.3601 12.0473 15.2769C11.7596 15.1861 11.4453 15.2202 11.1045 15.379C10.7562 15.5453 10.5214 15.7722 10.4003 16.0595C10.2791 16.3393 10.2829 16.6078 10.4116 16.8649C10.4722 16.9934 10.5555 17.1031 10.6615 17.1938C10.7675 17.277 10.8887 17.3375 11.025 17.3753C11.1689 17.4131 11.3204 17.4244 11.4794 17.4093C11.646 17.3942 11.8164 17.345 11.9905 17.2619Z" fill="#6DBE45"/>
</svg>
